<?xml version="1.0" encoding="utf-8"?><svg xmlns="http://www.w3.org/2000/svg" xmlns:xlink="http://www.w3.org/1999/xlink"><symbol viewBox="0 0 24 24" id="facebook" xmlns="http://www.w3.org/2000/svg"><path d="M12 2C6.5 2 2 6.5 2 12c0 5 3.7 9.1 8.4 9.9v-7H7.9V12h2.5V9.8c0-2.5 1.5-3.9 3.8-3.9 1.1 0 2.2.2 2.2.2v2.5h-1.3c-1.2 0-1.6.8-1.6 1.6V12h2.8l-.4 2.9h-2.3v7C18.3 21.1 22 17 22 12c0-5.5-4.5-10-10-10z"/></symbol><symbol viewBox="0 0 24 24" id="flickr" xmlns="http://www.w3.org/2000/svg"><path d="M6.5 7c-2.75 0-5 2.25-5 5s2.25 5 5 5 5-2.25 5-5-2.25-5-5-5zm11 0c-2.75 0-5 2.25-5 5s2.25 5 5 5 5-2.25 5-5-2.25-5-5-5z"/></symbol><symbol viewBox="0 0 24 24" id="google" xmlns="http://www.w3.org/2000/svg"><path d="M12.02 10.18v3.73h5.51c-.26 1.57-1.67 4.22-5.5 4.22-3.31 0-6.01-2.75-6.01-6.12s2.7-6.12 6.01-6.12c1.87 0 3.13.8 3.85 1.48l2.84-2.76C16.99 2.99 14.73 2 12.03 2c-5.52 0-10 4.48-10 10s4.48 10 10 10c5.77 0 9.6-4.06 9.6-9.77 0-.83-.11-1.42-.25-2.05h-9.36z"/></symbol><symbol viewBox="0 0 24 24" id="instagram" xmlns="http://www.w3.org/2000/svg"><path d="M12 4.622c2.403 0 2.688.009 3.637.052.877.04 1.354.187 1.671.31.42.163.72.358 1.035.673.315.315.51.615.673 1.035.123.317.27.794.31 1.671.043.949.052 1.234.052 3.637s-.009 2.688-.052 3.637c-.04.877-.187 1.354-.31 1.671-.163.42-.358.72-.673 1.035-.315.315-.615.51-1.035.673-.317.123-.794.27-1.671.31-.949.043-1.233.052-3.637.052s-2.688-.009-3.637-.052c-.877-.04-1.354-.187-1.671-.31a2.786 2.786 0 0 1-1.035-.673 2.786 2.786 0 0 1-.673-1.035c-.123-.317-.27-.794-.31-1.671-.043-.949-.052-1.234-.052-3.637s.009-2.688.052-3.637c.04-.877.187-1.354.31-1.671.163-.42.358-.72.673-1.035.315-.315.615-.51 1.035-.673.317-.123.794-.27 1.671-.31.949-.043 1.234-.052 3.637-.052M12 3c-2.444 0-2.751.01-3.711.054-.958.044-1.612.196-2.184.418a4.401 4.401 0 0 0-1.594 1.039c-.5.5-.808 1.002-1.038 1.594-.223.572-.375 1.226-.419 2.184C3.01 9.249 3 9.556 3 12s.01 2.751.054 3.711c.044.958.196 1.612.418 2.185.23.592.538 1.094 1.038 1.594s1.002.808 1.594 1.038c.572.222 1.227.375 2.185.418.96.044 1.267.054 3.711.054s2.751-.01 3.711-.054c.958-.044 1.612-.196 2.185-.418a4.411 4.411 0 0 0 1.594-1.038c.5-.5.808-1.002 1.038-1.594.222-.572.375-1.227.418-2.185.044-.96.054-1.267.054-3.711s-.01-2.751-.054-3.711c-.044-.958-.196-1.612-.418-2.185A4.411 4.411 0 0 0 19.49 4.51c-.5-.5-1.002-.808-1.594-1.038-.572-.222-1.227-.375-2.185-.418C14.751 3.01 14.444 3 12 3zm0 4.378a4.622 4.622 0 1 0 0 9.244 4.622 4.622 0 0 0 0-9.244zM12 15a3 3 0 1 1 0-6 3 3 0 0 1 0 6zm4.804-8.884a1.08 1.08 0 1 0 .001 2.161 1.08 1.08 0 0 0-.001-2.161z"/></symbol><symbol viewBox="0 0 24 24" id="linkedin" xmlns="http://www.w3.org/2000/svg"><path d="M19.7 3H4.3A1.3 1.3 0 0 0 3 4.3v15.4A1.3 1.3 0 0 0 4.3 21h15.4a1.3 1.3 0 0 0 1.3-1.3V4.3A1.3 1.3 0 0 0 19.7 3zM8.339 18.338H5.667v-8.59h2.672v8.59zM7.004 8.574a1.548 1.548 0 1 1-.002-3.096 1.548 1.548 0 0 1 .002 3.096zm11.335 9.764H15.67v-4.177c0-.996-.017-2.278-1.387-2.278-1.389 0-1.601 1.086-1.601 2.206v4.249h-2.667v-8.59h2.559v1.174h.037c.356-.675 1.227-1.387 2.526-1.387 2.703 0 3.203 1.779 3.203 4.092v4.711z"/></symbol><symbol viewBox="0 0 24 24" id="mail" xmlns="http://www.w3.org/2000/svg"><path d="M20 4H4a2 2 0 0 0-2 2v12a2 2 0 0 0 2 2h16a2 2 0 0 0 2-2V6a2 2 0 0 0-2-2zm0 4.236-8 4.882-8-4.882V6h16v2.236z"/></symbol><symbol viewBox="0 0 24 24" id="mastodon" xmlns="http://www.w3.org/2000/svg"><path d="M23.193 7.879c0-5.206-3.411-6.732-3.411-6.732C18.062.357 15.108.025 12.041 0h-.076c-3.068.025-6.02.357-7.74 1.147 0 0-3.411 1.526-3.411 6.732 0 1.192-.023 2.618.015 4.129.124 5.092.934 10.109 5.641 11.355 2.17.574 4.034.695 5.535.612 2.722-.15 4.25-.972 4.25-.972l-.09-1.975s-1.945.613-4.129.539c-2.165-.074-4.449-.233-4.799-2.891a5.499 5.499 0 0 1-.048-.745s2.125.52 4.817.643c1.646.075 3.19-.097 4.758-.283 3.007-.359 5.625-2.212 5.954-3.905.517-2.665.475-6.507.475-6.507zm-4.024 6.709h-2.497V8.469c0-1.29-.543-1.944-1.628-1.944-1.2 0-1.802.776-1.802 2.312v3.349h-2.483v-3.35c0-1.536-.602-2.312-1.802-2.312-1.085 0-1.628.655-1.628 1.944v6.119H4.832V8.284c0-1.289.328-2.313.987-3.07.68-.758 1.569-1.146 2.674-1.146 1.278 0 2.246.491 2.886 1.474L12 6.585l.622-1.043c.64-.983 1.608-1.474 2.886-1.474 1.104 0 1.994.388 2.674 1.146.658.757.986 1.781.986 3.07v6.304z"/></symbol><symbol viewBox="0 0 24 24" id="pinterest" xmlns="http://www.w3.org/2000/svg"><path d="M12.289 2C6.617 2 3.606 5.648 3.606 9.622c0 1.846 1.025 4.146 2.666 4.878.25.111.381.063.439-.169.044-.175.267-1.029.365-1.428a.365.365 0 0 0-.091-.362c-.54-.63-.975-1.791-.975-2.873 0-2.777 2.194-5.464 5.933-5.464 3.23 0 5.49 2.108 5.49 5.122 0 3.407-1.794 5.768-4.13 5.768-1.291 0-2.257-1.021-1.948-2.277.372-1.495 1.089-3.112 1.089-4.191 0-.967-.542-1.775-1.663-1.775-1.319 0-2.379 1.309-2.379 3.059 0 1.115.394 1.869.394 1.869s-1.302 5.279-1.54 6.261c-.405 1.666.053 4.368.094 4.604.021.126.167.169.25.063.129-.165 1.699-2.419 2.142-4.051.158-.59.817-2.995.817-2.995.43.784 1.681 1.446 3.013 1.446 3.963 0 6.822-3.494 6.822-7.833C20.394 5.112 16.849 2 12.289 2"/></symbol><symbol viewBox="0 0 24 24" id="snapchat" xmlns="http://www.w3.org/2000/svg"><path d="M12.206.793c.99 0 4.347.276 5.93 3.821.529 1.193.403 3.219.299 4.847l-.003.06c-.012.18-.022.345-.03.51.075.045.203.09.401.09.3-.016.659-.12 1.033-.301a.996.996 0 0 1 .464-.104c.182 0 .359.029.509.09.45.149.734.479.734.838.015.449-.39.839-1.213 1.168-.089.029-.209.075-.344.119-.45.135-1.139.36-1.333.81-.09.224-.061.524.12.868l.015.015c.06.136 1.526 3.475 4.791 4.014.255.044.435.27.42.509a.606.606 0 0 1-.045.225c-.24.569-1.273.988-3.146 1.271-.059.091-.12.375-.164.57-.029.179-.074.36-.134.553-.076.271-.27.405-.555.405h-.03a3.19 3.19 0 0 1-.538-.074 6.034 6.034 0 0 0-1.273-.135c-.3 0-.599.015-.913.074-.6.104-1.123.464-1.723.884-.853.599-1.826 1.288-3.294 1.288-.06 0-.119-.015-.18-.015h-.149c-1.468 0-2.427-.675-3.279-1.288-.599-.42-1.107-.779-1.707-.884a6.623 6.623 0 0 0-.928-.074c-.54 0-.958.089-1.272.149a2.879 2.879 0 0 1-.54.074c-.374 0-.523-.224-.583-.42-.061-.192-.09-.389-.135-.567-.046-.181-.105-.494-.166-.57-1.918-.222-2.95-.642-3.189-1.226a.6.6 0 0 1-.055-.225.496.496 0 0 1 .42-.509c3.264-.54 4.73-3.879 4.791-4.02l.016-.029c.18-.345.224-.645.119-.869-.195-.434-.884-.658-1.332-.809a2.233 2.233 0 0 1-.346-.119c-1.107-.435-1.257-.93-1.197-1.273.09-.479.674-.793 1.168-.793.146 0 .27.029.383.074.42.194.789.3 1.104.3.234 0 .384-.06.465-.105l-.046-.569c-.098-1.626-.225-3.651.307-4.837C7.392 1.077 10.739.807 11.727.807l.419-.015h.06z"/></symbol><symbol viewBox="0 0 24 24" id="twitter" xmlns="http://www.w3.org/2000/svg"><path d="M23.954 4.569a10 10 0 0 1-2.825.775 4.958 4.958 0 0 0 2.163-2.723c-.951.555-2.005.959-3.127 1.184a4.92 4.92 0 0 0-8.384 4.482C7.691 8.094 4.066 6.13 1.64 3.161a4.822 4.822 0 0 0-.666 2.475c0 1.71.87 3.213 2.188 4.096a4.904 4.904 0 0 1-2.228-.616v.061a4.923 4.923 0 0 0 3.946 4.827 4.996 4.996 0 0 1-2.212.085 4.937 4.937 0 0 0 4.604 3.417 9.868 9.868 0 0 1-6.102 2.105c-.39 0-.779-.023-1.17-.067a13.995 13.995 0 0 0 7.557 2.209c9.054 0 13.999-7.496 13.999-13.986 0-.209 0-.42-.015-.63a9.936 9.936 0 0 0 2.46-2.548l-.047-.02z"/></symbol><symbol viewBox="0 0 24 24" id="vimeo" xmlns="http://www.w3.org/2000/svg"><path d="M22.396 7.164c-.093 2.026-1.507 4.799-4.245 8.32C15.322 19.161 12.928 21 10.97 21c-1.214 0-2.24-1.119-3.079-3.359l-1.68-6.159c-.623-2.239-1.29-3.36-2.005-3.36-.156 0-.701.328-1.634.98l-.978-1.261c1.027-.902 2.04-1.805 3.037-2.708C6.001 3.95 7.03 3.327 7.715 3.264c1.619-.156 2.616.951 2.99 3.321.404 2.557.685 4.147.841 4.769.467 2.121.981 3.181 1.542 3.181.435 0 1.09-.688 1.963-2.065.871-1.376 1.338-2.422 1.401-3.142.125-1.187-.343-1.782-1.401-1.782-.498 0-1.012.115-1.541.341 1.023-3.35 2.977-4.977 5.862-4.884 2.139.063 3.148 1.45 3.024 4.161z"/></symbol><symbol viewBox="0 0 24 24" id="youtube" xmlns="http://www.w3.org/2000/svg"><path class="na" d="M23.495 6.205a3.007 3.007 0 0 0-2.088-2.088c-1.87-.501-9.396-.501-9.396-.501s-7.507-.01-9.396.501A3.007 3.007 0 0 0 .527 6.205a31.247 31.247 0 0 0-.522 5.805 31.247 31.247 0 0 0 .522 5.783 3.007 3.007 0 0 0 2.088 2.088c1.868.502 9.396.502 9.396.502s7.506 0 9.396-.502a3.007 3.007 0 0 0 2.088-2.088 31.247 31.247 0 0 0 .5-5.783 31.247 31.247 0 0 0-.5-5.805zM9.609 15.601V8.408l6.264 3.602z"/></symbol><symbol xml:space="preserve" viewBox="0 0 32 32" id="pinned-site--apple-pinned-site" xmlns="http://www.w3.org/2000/svg"><path d="M16.013 32h-.026zM17.857 0l-1.858 4.514L14.142 0H2v24.702C2 26.329 3.124 32.047 16 32c12.875.048 14-5.671 14-7.298V0H17.857zM26 20.056c-.588.314-.532.683-.532 1.149L25 23.29c-.027 1.523 1.159 4.71-9 4.71-10.161 0-8.973-3.187-9-4.71l-.481-2.085c0-.466.07-.835-.519-1.149V18h7v2.07c-1 .315-1 .682-1 1.148v2.337c0 .364-.17 1.445 4 1.445s4-1.081 4-1.445v-2.337c0-.466 0-.834-1-1.148V18h7v2.056zm0-14.467c-.588.314-1 .684-1 1.159v4.95c0 .468.412.837 1 1.151V15h-6v-2.165c0-.314 1-.684 1-1.15V7.913L16.8 15h-1.613L11 7.913v3.771c0 .467 1 .836 1 1.15V15H6v-2.151c.588-.314 1-.684 1-1.151v-4.95c0-.475-.412-.844-1-1.159V4h6.532l3.461 6.196L19.454 4H26v1.589z"/></symbol><symbol viewBox="0 0 100 100" id="svg--sprite.symbol" xmlns="http://www.w3.org/2000/svg"/></svg>
