<?xml version="1.0" encoding="utf-8"?>
<!-- Generator: Adobe Illustrator 19.1.0, SVG Export Plug-In . SVG Version: 6.00 Build 0)  -->
<svg version="1.0" id="Layer_1" xmlns="http://www.w3.org/2000/svg" xmlns:xlink="http://www.w3.org/1999/xlink" x="0px" y="0px"
	 width="32px" height="32px" viewBox="0 0 32 32" enable-background="new 0 0 32 32" xml:space="preserve">
<g>
	<polygon points="16.013,32 16,32 15.987,32 	"/>
	<path d="M17.857,0l-1.858,4.514L14.142,0H2v24.702C2,26.329,3.124,32.047,16,32c12.875,0.048,14-5.671,14-7.298V0H17.857z
		 M26,20.056c-0.588,0.314-0.532,0.683-0.532,1.149L25,23.29C24.973,24.813,26.159,28,16,28c-10.161,0-8.973-3.187-9-4.71
		l-0.481-2.085c0-0.466,0.07-0.835-0.519-1.149V18h7v0.429v1.641c-1,0.315-1,0.682-1,1.148v2.337C12,23.919,11.83,25,16,25
		c4.17,0,4-1.081,4-1.445v-2.337c0-0.466,0-0.834-1-1.148V18h7V20.056z M26,5.589c-0.588,0.314-1,0.684-1,1.159v4.95
		c0,0.468,0.412,0.837,1,1.151V15h-6v-2.165c0-0.314,1-0.684,1-1.15V7.913L16.8,15h-1.613L11,7.913v3.771c0,0.467,1,0.836,1,1.15V15
		H6v-2.151c0.588-0.314,1-0.684,1-1.151v-4.95c0-0.475-0.412-0.844-1-1.159V4h6.532l3.461,6.196L19.454,4H26V5.589z"/>
</g>
<g>
</g>
<g>
</g>
<g>
</g>
<g>
</g>
<g>
</g>
<g>
</g>
<g>
</g>
<g>
</g>
<g>
</g>
<g>
</g>
<g>
</g>
<g>
</g>
<g>
</g>
<g>
</g>
<g>
</g>
</svg>
